<svg width="247" height="87" viewBox="0 0 247 87" fill="none" xmlns="http://www.w3.org/2000/svg">
<path d="M64.6719 76H53.0469L35.1406 24.25L17.0469 76H5.32812L29.5156 7H40.6719L64.6719 76ZM41.3281 54.0625L44.0469 61.6562H26.1406L28.7656 54.0625H41.3281Z" fill="#FFE500"/>
<path d="M65.0391 48.1997H71.4609L77.0391 66.9966V74.8247H74.3203L65.0391 48.1997ZM84.5859 48.1997H90.9609L81.6797 74.8247H78.9609V66.9966L84.5859 48.1997Z" fill="#FFE500"/>
<path d="M103.062 66.6685C103.062 68.0747 103.344 69.1216 103.906 69.8091C104.5 70.4966 105.344 70.9028 106.438 71.0278V74.8247C106.312 74.856 106.109 74.8716 105.828 74.8716C104.766 74.8716 103.734 74.731 102.734 74.4497C101.766 74.1685 100.906 73.7153 100.156 73.0903C99.4062 72.4653 98.8125 71.6372 98.375 70.606C97.9688 69.5747 97.7656 68.3091 97.7656 66.8091C97.7656 65.3716 98.0625 64.1372 98.6562 63.106C99.2812 62.0435 100.062 61.1841 101 60.5278C101.969 59.8403 103.062 59.3403 104.281 59.0278C105.5 58.6841 106.734 58.5122 107.984 58.5122H110.047V61.8403H109.016C108.391 61.8403 107.734 61.9028 107.047 62.0278C106.359 62.1528 105.719 62.3872 105.125 62.731C104.531 63.0747 104.031 63.5747 103.625 64.231C103.25 64.856 103.062 65.6685 103.062 66.6685ZM117.641 66.8091C117.641 67.0591 117.656 67.4341 117.688 67.9341C117.719 68.4028 117.781 68.8872 117.875 69.3872C117.969 69.8872 118.109 70.3403 118.297 70.7466C118.516 71.1528 118.797 71.4185 119.141 71.5435L117.641 74.6841C117.234 74.6841 116.797 74.5903 116.328 74.4028C115.891 74.2153 115.453 73.9497 115.016 73.606C114.609 73.2622 114.25 72.8872 113.938 72.481C113.656 72.0435 113.438 71.5747 113.281 71.0747C112.969 71.856 112.344 72.5591 111.406 73.1841C110.5 73.7778 109.484 74.2153 108.359 74.4966V70.9341C109.109 70.7778 109.781 70.481 110.375 70.0435C111 69.5747 111.531 69.0278 111.969 68.4028V58.5122C111.969 56.981 111.891 55.7622 111.734 54.856C111.578 53.9497 111.312 53.2935 110.938 52.8872C110.562 52.4497 110.094 52.1841 109.531 52.0903C109 51.9653 108.359 51.9028 107.609 51.9028C106.922 51.9028 106.266 51.9966 105.641 52.1841C105.047 52.3403 104.484 52.5435 103.953 52.7935C103.453 53.0122 103 53.2622 102.594 53.5435C102.219 53.8247 101.938 54.0435 101.75 54.1997L99.6406 50.9653C99.9531 50.6216 100.422 50.2778 101.047 49.9341C101.672 49.5591 102.391 49.231 103.203 48.9497C104.016 48.6685 104.891 48.4497 105.828 48.2935C106.797 48.106 107.797 48.0122 108.828 48.0122C109.766 48.0122 110.672 48.106 111.547 48.2935C112.453 48.481 113.266 48.7935 113.984 49.231C114.734 49.6685 115.375 50.2622 115.906 51.0122C116.469 51.731 116.859 52.6372 117.078 53.731C117.297 54.8247 117.438 55.9341 117.5 57.0591C117.594 58.1528 117.641 59.2466 117.641 60.3403V66.4341V66.8091Z" fill="#FFE500"/>
<path d="M132.141 48.1997L132.75 50.9185V65.2622V65.356V74.6372H127.078V48.1997H132.141ZM134.672 49.3716C135.453 48.9341 136.391 48.606 137.484 48.3872C138.578 48.1372 140.062 48.0122 141.938 48.0122V53.9185C141.062 53.6685 140 53.5278 138.75 53.4966C138.062 53.4966 137.359 53.5591 136.641 53.6841C135.953 53.7778 135.297 53.9341 134.672 54.1528V49.3716Z" fill="#FFE500"/>
<path d="M165.898 55.0435C165.43 54.481 164.773 53.9653 163.93 53.4966C163.117 52.9966 162.023 52.6997 160.648 52.606V48.106C162.367 48.1997 163.836 48.5747 165.055 49.231C166.305 49.856 167.43 50.7778 168.43 51.9966L165.898 55.0435ZM160.648 70.1841C161.773 70.0591 162.727 69.7935 163.508 69.3872C164.32 68.9497 165.086 68.4497 165.805 67.8872L167.914 70.9341C166.945 72.1528 165.898 73.0903 164.773 73.7466C163.648 74.3716 162.273 74.731 160.648 74.8247V70.1841ZM147.57 61.4185C147.57 59.6372 147.82 57.9653 148.32 56.4028C148.852 54.8403 149.617 53.4653 150.617 52.2778C151.617 51.0903 152.789 50.1372 154.133 49.4185C155.508 48.6685 157.039 48.231 158.727 48.106V52.6528C157.164 52.9966 155.914 53.9653 154.977 55.5591C154.039 57.1216 153.57 59.0278 153.57 61.2778C153.57 62.4341 153.68 63.5278 153.898 64.5591C154.148 65.5591 154.492 66.4497 154.93 67.231C155.367 68.0122 155.898 68.6685 156.523 69.1997C157.18 69.731 157.914 70.0591 158.727 70.1841V74.8247C157.008 74.731 155.461 74.3247 154.086 73.606C152.711 72.856 151.539 71.8872 150.57 70.6997C149.602 69.481 148.852 68.0747 148.32 66.481C147.82 64.8872 147.57 63.1997 147.57 61.4185Z" fill="#FFE500"/>
<path d="M188.938 48.0591C190.656 48.1528 192.219 48.5747 193.625 49.3247C195.031 50.0435 196.203 51.0122 197.141 52.231C198.109 53.4185 198.859 54.8091 199.391 56.4028C199.922 57.9966 200.188 59.6997 200.188 61.5122C200.188 63.3247 199.906 65.0278 199.344 66.6216C198.812 68.1841 198.062 69.5591 197.094 70.7466C196.125 71.9028 194.938 72.8403 193.531 73.5591C192.125 74.2778 190.594 74.6997 188.938 74.8247V70.3247C190.5 69.981 191.766 68.9966 192.734 67.3716C193.734 65.7466 194.234 63.7935 194.234 61.5122C194.234 60.356 194.109 59.2778 193.859 58.2778C193.641 57.2466 193.297 56.3247 192.828 55.5122C192.359 54.6997 191.797 54.0278 191.141 53.4966C190.484 52.9653 189.75 52.6216 188.938 52.4653V48.0591ZM175.859 61.4185C175.859 59.606 176.125 57.9185 176.656 56.356C177.188 54.7935 177.938 53.4341 178.906 52.2778C179.906 51.0903 181.094 50.1372 182.469 49.4185C183.844 48.6997 185.359 48.2622 187.016 48.106V52.4653C185.453 52.8091 184.203 53.7935 183.266 55.4185C182.328 57.0435 181.859 58.9966 181.859 61.2778C181.859 62.4341 181.969 63.5278 182.188 64.5591C182.438 65.5903 182.781 66.5122 183.219 67.3247C183.656 68.1372 184.188 68.8091 184.812 69.3403C185.469 69.8716 186.203 70.1997 187.016 70.3247V74.8247C185.297 74.6997 183.75 74.2778 182.375 73.5591C181 72.8091 179.828 71.8403 178.859 70.6528C177.891 69.4653 177.141 68.0747 176.609 66.481C176.109 64.8872 175.859 63.1997 175.859 61.4185Z" fill="#FFE500"/>
<path d="M213.148 48.1997L213.758 50.9185V74.6372H208.039V48.1997H213.148ZM235.273 47.9185C236.336 47.9185 237.336 48.1372 238.273 48.5747C239.211 48.981 240.023 49.5747 240.711 50.356C241.43 51.1372 241.977 52.0747 242.352 53.1685C242.758 54.231 242.961 55.3872 242.961 56.6372V74.6372H237.336V60.2466C237.336 59.1841 237.32 58.1841 237.289 57.2466C237.289 56.2778 237.195 55.4185 237.008 54.6685C236.82 53.9185 236.508 53.3403 236.07 52.9341C235.664 52.4966 235.023 52.2778 234.148 52.2778C233.93 52.2778 233.461 52.3247 232.742 52.4185C232.023 52.5122 231.195 52.7778 230.258 53.2153V49.5122C231.102 49.0122 231.961 48.6216 232.836 48.3403C233.711 48.0591 234.523 47.9185 235.273 47.9185ZM227.164 51.5278C227.539 52.0903 227.805 52.6997 227.961 53.356C228.148 53.981 228.258 54.6372 228.289 55.3247C228.352 56.0122 228.367 56.731 228.336 57.481C228.336 58.1997 228.336 58.9653 228.336 59.7778V74.6372H222.664V60.2466C222.664 59.1841 222.664 58.1841 222.664 57.2466C222.664 56.2778 222.57 55.4185 222.383 54.6685C222.195 53.9185 221.883 53.3403 221.445 52.9341C221.008 52.4966 220.367 52.2778 219.523 52.2778C219.148 52.2778 218.586 52.356 217.836 52.5122C217.117 52.6372 216.398 52.8716 215.68 53.2153V49.5122C216.43 49.0747 217.227 48.7153 218.07 48.4341C218.945 48.1528 219.805 48.0122 220.648 48.0122C222.086 48.0122 223.289 48.3091 224.258 48.9028C225.258 49.4966 226.227 50.3716 227.164 51.5278Z" fill="#FFE500"/>
<path d="M50.8402 16.1918C50.5296 16.062 50.158 15.8375 49.7254 15.5183C49.2928 15.1991 48.6722 14.9083 47.8636 14.6458C47.056 14.3208 46.0287 14.055 44.7818 13.8482C43.5348 13.6415 41.9417 13.5857 40.0025 13.6809L40.1483 4.21325C42.8971 4.31808 45.6732 4.67337 48.4767 5.27912C51.3436 5.82333 53.6433 6.67134 55.3758 7.82315C54.9883 8.62978 54.5369 9.52919 54.0216 10.5214C53.5072 11.4511 53.0246 12.35 52.5736 13.2181C52.1237 14.0238 51.7381 14.7055 51.417 15.2631C51.0959 15.8207 50.9036 16.1303 50.8402 16.1918ZM18.3848 23.1929C18.4271 20.4432 18.9338 17.982 19.9049 15.8091C20.876 13.6363 22.1552 11.7496 23.7425 10.1488C25.3933 8.48655 27.2883 7.20307 29.4275 6.29841C31.6301 5.33221 33.9212 4.71117 36.3007 4.43527L36.1491 14.2779C34.1388 14.9345 32.464 16.1276 31.1247 17.8572C29.7863 19.5243 29.1037 21.2327 29.0768 22.9825C29.0392 25.4197 29.6651 27.3983 30.9543 28.9183C32.2436 30.4384 33.8794 31.7762 35.8619 32.9319L35.6973 43.6181C33.6504 42.5865 31.6045 41.4924 29.5596 40.3357C27.5156 39.1166 25.662 37.7129 23.9988 36.1246C22.3355 34.5363 20.9574 32.7024 19.8643 30.6228C18.8337 28.5442 18.3405 26.0675 18.3848 23.1929ZM19.2956 61.4614C20.1628 61.9748 21.2487 62.4916 22.5533 63.0118C23.9214 63.4704 25.3208 63.9295 26.7514 64.3891C28.1829 64.7862 29.6155 65.1208 31.0489 65.3929C32.4824 65.665 33.8241 65.8107 35.0739 65.8299L35.3551 65.8342L35.218 74.7394L35.0305 74.7365C33.5307 74.7134 31.9698 74.5956 30.3479 74.3831C28.7875 74.2341 27.1978 73.9596 25.5788 73.5596C23.9597 73.1596 22.4051 72.6356 20.9149 71.9876C19.4882 71.2781 18.2509 70.4464 17.2029 69.4927L19.2956 61.4614ZM39.6763 34.8659C41.7241 35.835 43.8022 36.8671 45.9106 37.9622C48.0815 39.0583 50.0298 40.4009 51.7555 41.9902C53.4822 43.517 54.8911 45.3826 55.9823 47.5872C57.0735 49.7918 57.5941 52.5189 57.544 55.7685C57.5094 58.0182 57.0382 60.1987 56.1306 62.31C55.2855 64.4222 54.0683 66.3412 52.479 68.0669C50.9532 69.7311 49.0563 71.1396 46.7883 72.2923C44.5203 73.445 41.9461 74.1867 39.0656 74.5174L39.2042 65.5185C44.3479 64.3475 46.9625 60.9812 47.0482 55.4193C47.0818 53.2321 46.3911 51.4087 44.9759 49.9493C43.5607 48.4898 41.7379 47.1178 39.5074 45.8333L39.6763 34.8659Z" fill="#19AAFC"/>
<path d="M78.625 22.4106C80.0312 22.5409 81.2943 22.9185 82.4141 23.5435C83.5599 24.1685 84.5365 24.9757 85.3438 25.9653C86.151 26.9549 86.763 28.0877 87.1797 29.3638C87.6224 30.6398 87.8438 31.9679 87.8438 33.3481C87.8438 33.9731 87.8047 34.5981 87.7266 35.2231H74.3281V31.7856H83.3516C83.3516 31.1086 83.2344 30.4575 83 29.8325C82.7917 29.2075 82.4661 28.6346 82.0234 28.1138C81.6068 27.5669 81.112 27.1112 80.5391 26.7466C79.9661 26.382 79.3281 26.1606 78.625 26.0825V22.4106ZM78.4688 40.9653C78.7552 40.9653 79.1068 40.9393 79.5234 40.8872C79.9661 40.8091 80.4219 40.6919 80.8906 40.5356C81.3854 40.3534 81.8672 40.132 82.3359 39.8716C82.8307 39.6112 83.2604 39.2987 83.625 38.9341L85.3438 41.5513C84.4844 42.619 83.4818 43.4263 82.3359 43.9731C81.1901 44.52 79.7318 44.7935 77.9609 44.7935C76.5286 44.7935 75.1875 44.507 73.9375 43.9341C72.6875 43.3351 71.6198 42.5278 70.7344 41.5122C69.849 40.4966 69.1458 39.3117 68.625 37.9575C68.1042 36.6034 67.8438 35.145 67.8438 33.5825C67.8438 32.0981 68.0781 30.6919 68.5469 29.3638C69.0417 28.0356 69.7057 26.8768 70.5391 25.8872C71.3724 24.8716 72.3359 24.0513 73.4297 23.4263C74.5495 22.8013 75.7474 22.4497 77.0234 22.3716V26.1216C76.0599 26.3039 75.2656 26.6945 74.6406 27.2935C74.0156 27.8924 73.5208 28.5825 73.1562 29.3638C72.8177 30.119 72.5703 30.9002 72.4141 31.7075C72.2839 32.5148 72.2188 33.2049 72.2188 33.7778C72.2188 34.7935 72.3359 35.744 72.5703 36.6294C72.8307 37.4888 73.2214 38.244 73.7422 38.895C74.263 39.52 74.901 40.0278 75.6562 40.4185C76.4375 40.783 77.375 40.9653 78.4688 40.9653Z" fill="#19AAFC"/>
<path d="M108.867 22.606L109.375 24.8716V36.8247V36.9028V44.6372H104.648V22.606H108.867ZM110.977 23.5825C111.628 23.2179 112.409 22.9445 113.32 22.7622C114.232 22.5539 115.469 22.4497 117.031 22.4497V27.3716C116.302 27.1632 115.417 27.0461 114.375 27.02C113.802 27.02 113.216 27.0721 112.617 27.1763C112.044 27.2544 111.497 27.3846 110.977 27.5669V23.5825Z" fill="#19AAFC"/>
<path d="M122.699 22.606H128.051L132.699 38.27V44.7935H130.434L122.699 22.606ZM138.988 22.606H144.301L136.566 44.7935H134.301V38.27L138.988 22.606Z" fill="#19AAFC"/>
<path d="M162.402 44.6372H157.637V22.606H162.402V44.6372ZM162.832 15.5747C162.832 16.356 162.559 17.02 162.012 17.5669C161.465 18.0877 160.801 18.3481 160.02 18.3481C159.238 18.3481 158.574 18.0747 158.027 17.5278C157.507 16.981 157.246 16.3299 157.246 15.5747C157.246 14.7935 157.52 14.1294 158.066 13.5825C158.613 13.0356 159.264 12.7622 160.02 12.7622C160.801 12.7622 161.465 13.0356 162.012 13.5825C162.559 14.1294 162.832 14.7935 162.832 15.5747Z" fill="#19AAFC"/>
<path d="M193.082 28.6719C192.691 28.2031 192.145 27.7734 191.441 27.3828C190.764 26.9661 189.853 26.7188 188.707 26.6406V22.8906C190.139 22.9688 191.363 23.2812 192.379 23.8281C193.421 24.349 194.358 25.1172 195.191 26.1328L193.082 28.6719ZM188.707 41.2891C189.645 41.1849 190.439 40.9635 191.09 40.625C191.767 40.2604 192.405 39.8438 193.004 39.375L194.762 41.9141C193.954 42.9297 193.082 43.7109 192.145 44.2578C191.207 44.7786 190.061 45.0781 188.707 45.1562V41.2891ZM177.809 33.9844C177.809 32.5 178.017 31.1068 178.434 29.8047C178.876 28.5026 179.514 27.3568 180.348 26.3672C181.181 25.3776 182.158 24.5833 183.277 23.9844C184.423 23.3594 185.699 22.9948 187.105 22.8906V26.6797C185.803 26.9661 184.762 27.7734 183.98 29.1016C183.199 30.4036 182.809 31.9922 182.809 33.8672C182.809 34.8307 182.9 35.7422 183.082 36.6016C183.29 37.4349 183.577 38.1771 183.941 38.8281C184.306 39.4792 184.749 40.026 185.27 40.4688C185.816 40.9115 186.428 41.1849 187.105 41.2891V45.1562C185.673 45.0781 184.384 44.7396 183.238 44.1406C182.092 43.5156 181.116 42.7083 180.309 41.7188C179.501 40.7031 178.876 39.5312 178.434 38.2031C178.017 36.875 177.809 35.4688 177.809 33.9844Z" fill="#19AAFC"/>
<path d="M221.625 22.4106C223.031 22.5409 224.294 22.9185 225.414 23.5435C226.56 24.1685 227.536 24.9757 228.344 25.9653C229.151 26.9549 229.763 28.0877 230.18 29.3638C230.622 30.6398 230.844 31.9679 230.844 33.3481C230.844 33.9731 230.805 34.5981 230.727 35.2231H217.328V31.7856H226.352C226.352 31.1086 226.234 30.4575 226 29.8325C225.792 29.2075 225.466 28.6346 225.023 28.1138C224.607 27.5669 224.112 27.1112 223.539 26.7466C222.966 26.382 222.328 26.1606 221.625 26.0825V22.4106ZM221.469 40.9653C221.755 40.9653 222.107 40.9393 222.523 40.8872C222.966 40.8091 223.422 40.6919 223.891 40.5356C224.385 40.3534 224.867 40.132 225.336 39.8716C225.831 39.6112 226.26 39.2987 226.625 38.9341L228.344 41.5513C227.484 42.619 226.482 43.4263 225.336 43.9731C224.19 44.52 222.732 44.7935 220.961 44.7935C219.529 44.7935 218.188 44.507 216.938 43.9341C215.688 43.3351 214.62 42.5278 213.734 41.5122C212.849 40.4966 212.146 39.3117 211.625 37.9575C211.104 36.6034 210.844 35.145 210.844 33.5825C210.844 32.0981 211.078 30.6919 211.547 29.3638C212.042 28.0356 212.706 26.8768 213.539 25.8872C214.372 24.8716 215.336 24.0513 216.43 23.4263C217.549 22.8013 218.747 22.4497 220.023 22.3716V26.1216C219.06 26.3039 218.266 26.6945 217.641 27.2935C217.016 27.8924 216.521 28.5825 216.156 29.3638C215.818 30.119 215.57 30.9002 215.414 31.7075C215.284 32.5148 215.219 33.2049 215.219 33.7778C215.219 34.7935 215.336 35.744 215.57 36.6294C215.831 37.4888 216.221 38.244 216.742 38.895C217.263 39.52 217.901 40.0278 218.656 40.4185C219.438 40.783 220.375 40.9653 221.469 40.9653Z" fill="#19AAFC"/>
</svg>
